<svg xmlns="http://www.w3.org/2000/svg" width="171.296" height="184" fill="none" overflow="visible"><g><g><defs><linearGradient id="idid_s1R00QwCZg-1879628921" x1="0.6169243635996696" x2="0.3830756364003303" y1="1" y2="0"><stop offset="0" stop-color="rgb(149,6,11)" stop-opacity="1"></stop><stop offset="1" stop-color="rgb(184,14,14)" stop-opacity="1"></stop></linearGradient></defs><path d="M 96.612 0.004 C 81.6 -0.135 66.137 3.395 52.251 10.146 C 41.977 15.122 30.418 23.922 22.929 32.333 C 10.808 46.027 3.299 62.354 0.921 80.123 C -0.378 89.897 -0.302 96.754 1.144 105.916 C 4.947 130.269 19.586 153.119 40.198 166.868 C 56.841 177.981 76.055 183.975 95.053 184 C 118.316 184.046 139.803 176.642 157.216 162.607 C 163.463 157.572 170.899 150.392 171 149.278 C 171.041 148.832 160.351 142.318 159.423 142.24 C 159.132 142.216 157.409 143.812 155.533 145.788 C 148.395 153.555 135.606 161.746 124.436 165.636 C 117.79 167.997 111.821 169.349 104.2 170.225 C 95.34 171.221 81.242 170.036 73.219 167.621 C 55.931 162.294 43.883 154.655 32.76 141.985 C 18.408 125.617 12.303 106.63 14.255 84.557 C 15.944 65.382 24.568 48.362 39.284 35.055 C 64.197 12.497 100.854 6.705 130.504 20.709 L 134.482 22.615 L 140.717 18.984 C 144.174 16.972 146.973 15.129 146.993 14.906 C 147.12 13.513 131.418 6.186 123.501 3.892 C 118.545 2.465 105.787 0.045 103.33 0.063 C 102.866 0.024 99.829 -0.007 96.612 0.004 Z" fill="url(#idid_s1R00QwCZg-1879628921)"></path></g><g><defs><linearGradient id="idid_ycGY0Vkjeg-1879628925" x1="0.5777879694103167" x2="0.42221203058968326" y1="1" y2="0"><stop offset="0" stop-color="rgb(149,6,11)" stop-opacity="1"></stop><stop offset="1" stop-color="rgb(184,14,14)" stop-opacity="1"></stop></linearGradient></defs><path d="M 166.908 19.871 C 162.866 22.101 106.668 53.339 74.25 71.35 C 66.093 75.919 59.388 79.786 59.296 80.014 C 59.258 80.253 68.254 82.309 79.345 84.527 L 99.407 88.611 L 102.375 110.544 C 103.953 122.669 105.388 132.549 105.55 132.581 C 105.713 132.612 108.226 128.423 111.108 123.32 C 113.936 118.208 119.671 108.182 123.773 101.04 C 127.875 93.897 133.83 83.546 136.941 78.057 C 140.107 72.579 144.779 64.316 147.403 59.779 C 163.039 32.537 171.437 17.735 171.294 17.584 C 171.249 17.514 169.297 18.55 166.908 19.871 Z" fill="url(#idid_ycGY0Vkjeg-1879628925)"></path></g><g><defs><linearGradient id="idid_Gt0NCd8j7g-1879628921" x1="0.6195891991237764" x2="0.38041080087622353" y1="1" y2="0"><stop offset="0" stop-color="rgb(149,6,11)" stop-opacity="1"></stop><stop offset="1" stop-color="rgb(184,14,14)" stop-opacity="1"></stop></linearGradient></defs><path d="M 91.795 26.442 C 85.859 26.785 77.872 28.473 71.516 30.858 C 51.495 38.217 35.735 54.636 29.798 74.241 C 28.307 79.057 26.987 93.546 27.616 98.203 C 30.356 120.109 42.78 138.392 61.714 148.743 C 88.508 163.292 122.624 159.084 143.606 138.61 C 145.465 136.801 146.91 135.069 146.761 134.776 C 146.612 134.483 144.075 132.81 141.08 131.042 L 135.695 127.894 L 130.038 132.248 C 121.729 138.737 113.168 142.229 102.406 143.571 C 94.48 144.59 82.795 143.215 75.857 140.442 C 57.413 133.052 45.119 118.485 41.779 99.955 C 40.768 94.367 41.991 80.937 43.98 75.152 C 45.708 70.299 50.195 62.759 53.996 58.249 C 64.472 45.933 83.032 38.564 99.857 39.978 L 104.556 40.374 L 111.981 35.887 C 118.352 32.043 120.54 30.486 119.67 30.413 C 119.612 30.408 116.873 29.672 113.622 28.781 C 107.404 27.08 98.316 26.091 91.795 26.442 Z" fill="url(#idid_Gt0NCd8j7g-1879628921)"></path></g></g></svg>