<svg width="742" height="796" viewBox="0 0 742 796" fill="none" xmlns="http://www.w3.org/2000/svg">
<path d="M571.694 0.00934872C537.326 -0.320651 501.924 8.09255 470.134 24.1832C446.611 36.0452 420.149 57.0181 403.003 77.0671C375.253 109.706 358.062 148.622 352.617 190.975C349.642 214.271 349.818 230.616 353.127 252.454C361.835 310.5 395.349 364.962 442.539 397.733C480.642 424.221 524.631 438.509 568.124 438.567C621.384 438.676 670.576 421.029 710.443 387.577C724.744 375.577 741.767 358.463 741.999 355.806C742.092 354.744 717.619 339.218 715.494 339.032C714.829 338.974 710.883 342.778 706.589 347.488C690.247 366.001 660.967 385.524 635.395 394.797C620.18 400.425 606.514 403.647 589.066 405.734C568.782 408.108 536.505 405.284 518.137 399.528C478.559 386.831 450.975 368.624 425.51 338.423C392.652 299.411 378.676 254.154 383.145 201.543C387.01 155.839 406.754 115.272 440.447 83.5552C497.483 29.7882 581.406 15.9832 649.288 49.3601L658.394 53.9042L672.669 45.2491C680.584 40.4531 686.991 36.0622 687.037 35.5302C687.328 32.2102 651.38 14.7438 633.254 9.27655C621.907 5.87465 592.699 0.107048 587.074 0.150248C586.011 0.0573484 579.058 -0.0156513 571.694 0.00934872Z" fill="url(#paint0_linear_109_67)"/>
<path d="M731.33 46.9946C721.529 51.9013 585.26 120.615 506.653 160.234C486.874 170.285 470.616 178.791 470.392 179.293C470.3 179.819 492.113 184.342 519.007 189.22L567.653 198.204L574.85 246.452C578.677 273.122 582.156 294.856 582.55 294.926C582.944 294.995 589.037 285.78 596.026 274.556C602.883 263.31 616.79 241.256 626.736 225.545C636.683 209.833 651.122 187.062 658.667 174.988C666.342 162.938 677.671 144.762 684.034 134.782C721.949 74.856 742.313 42.2974 741.965 41.965C741.857 41.8109 737.122 44.0903 731.33 46.9946Z" fill="url(#paint1_linear_109_67)"/>
<path d="M560.841 63.077C547.251 63.896 528.965 67.918 514.414 73.604C468.577 91.143 432.496 130.28 418.905 177.007C415.491 188.487 412.47 223.021 413.908 234.122C420.181 286.334 448.625 329.913 491.973 354.584C553.317 389.263 631.422 379.232 679.458 330.433C683.716 326.121 687.022 321.993 686.682 321.294C686.341 320.595 680.533 316.607 673.675 312.394L661.348 304.891L648.395 315.268C629.374 330.736 609.774 339.059 585.135 342.257C566.988 344.685 540.238 341.408 524.354 334.798C482.128 317.184 453.98 282.465 446.334 238.298C444.019 224.978 446.82 192.967 451.372 179.178C455.329 167.613 465.601 149.639 474.304 138.89C498.287 109.536 540.78 91.972 579.299 95.342L590.058 96.284L607.055 85.591C621.642 76.427 626.652 72.717 624.659 72.542C624.526 72.531 618.255 70.777 610.812 68.654C596.578 64.598 575.771 62.242 560.841 63.077Z" fill="url(#paint2_linear_109_67)"/>
<defs>
<linearGradient id="paint0_linear_109_67" x1="532.935" y1="436.234" x2="444.459" y2="64.1521" gradientUnits="userSpaceOnUse">
<stop stop-color="#95060B"/>
<stop offset="1" stop-color="#B80E0E"/>
</linearGradient>
<linearGradient id="paint1_linear_109_67" x1="573.954" y1="293.41" x2="536.065" y2="56.3839" gradientUnits="userSpaceOnUse">
<stop stop-color="#95060B"/>
<stop offset="1" stop-color="#B80E0E"/>
</linearGradient>
<linearGradient id="paint2_linear_109_67" x1="541.058" y1="373.172" x2="477" y2="109.66" gradientUnits="userSpaceOnUse">
<stop stop-color="#95060B"/>
<stop offset="1" stop-color="#B80E0E"/>
</linearGradient>
</defs>
</svg>
