<svg xmlns="http://www.w3.org/2000/svg" width="33" height="75" fill="none" overflow="visible"><g><path d="M 0.892 36.054 C 1.627 36.054 2.391 36.119 3.122 36.037 C 4.461 35.886 5.305 34.295 6.309 33.522 C 9.239 31.263 10.603 28.026 12.337 24.815 C 14.664 20.512 14.865 15.862 14.865 11.044 L 14.865 5.978 C 14.865 4.599 14.27 3.349 14.27 2.022 C 14.27 1.104 13.973 -1.308 13.973 0.914 L 13.973 14.825 C 13.973 17.168 14.788 19.421 14.865 21.738 C 14.981 25.17 16.752 29.515 19.027 31.938 C 19.984 32.959 20.566 34.209 21.554 35.262 C 22.497 36.265 23.628 37.008 24.808 37.566 C 27.142 38.671 30.17 38.269 32.702 38.269" fill="transparent" stroke-width="5" stroke="rgb(240, 234, 228)" stroke-linecap="round" stroke-miterlimit="10" stroke-dasharray=""></path><path d="M 0 37.004 C 1.249 37.004 2.183 36.924 3.27 37.566 C 4.214 38.125 5.013 39.595 5.648 40.557 C 8.275 44.53 10.314 48.165 11.314 52.956 C 12.373 58.029 12.785 63.192 12.785 68.415 L 12.785 74.36 C 12.785 75.967 12.943 74.112 13.065 73.533 C 13.585 71.035 13.415 68.415 14.139 65.882 C 14.96 63.007 15.423 59.793 16.649 57.088 C 18.416 53.189 19.381 49.053 21.703 45.481 C 23.322 42.99 24.573 41.161 27.5 40.469 C 28.554 40.219 29.659 39.536 30.754 39.536 L 33 39.536" fill="transparent" stroke-width="5" stroke="rgb(240, 234, 228)" stroke-linecap="round" stroke-miterlimit="10" stroke-dasharray=""></path></g></svg>