<svg xmlns="http://www.w3.org/2000/svg" width="58" height="60" fill="none"><path d="M 21.87 -0.188 C 20.965 0.038 21.524 4.678 21.524 5.23 L 21.524 57.22" fill="transparent" stroke-width="5" stroke="rgb(120, 6, 6)" stroke-linecap="round" stroke-miterlimit="10" stroke-dasharray=""></path><path d="M 0.428 22.291 C 6.658 22.291 12.938 22.003 19.122 22.887 C 27.642 24.104 35.73 26.6 44.119 28.324 C 47.952 29.112 51.505 29.9 55.416 29.9" fill="transparent" stroke-width="5" stroke="rgb(120, 6, 6)" stroke-linecap="round" stroke-miterlimit="10" stroke-dasharray=""></path><path d="M 7.345 2.233 C 7.519 3.798 9.203 5.506 9.996 6.767 C 13.633 12.551 17.409 18.245 21.178 23.943 C 25.798 30.927 29.312 38.291 33.475 45.501 C 35.008 48.157 36.123 51.279 37.778 53.762" fill="transparent" stroke-width="5" stroke="rgb(120, 6, 6)" stroke-linecap="round" stroke-miterlimit="10" stroke-dasharray=""></path><path d="M 4.232 43.733 C 4.619 41.153 7.682 38.339 9.151 36.317 C 14.8 28.543 20.494 20.45 27.21 13.549 C 30.792 9.869 34.459 5.787 38.469 2.579" fill="transparent" stroke-width="5" stroke="rgb(120, 6, 6)" stroke-linecap="round" stroke-miterlimit="10" stroke-dasharray=""></path></svg>