<svg xmlns="http://www.w3.org/2000/svg" width="34" height="52" fill="none" overflow="visible"><path d="M 22.746 42.846 C 20.938 42.846 20.624 41.793 19.341 40.902 C 15.395 38.16 12.033 34.369 9.311 30.79 C 5.586 25.892 2.069 20.495 0.488 14.846 C -0.153 12.55 -0.134 8.835 0.379 6.528 C 1.129 3.16 3.798 6.863 4.954 7.606 C 9.556 10.56 12.662 17.101 14.217 21.546 C 14.797 23.207 16.157 24.333 16.157 21.726 C 16.157 17.212 17.433 13.981 19.964 9.999 C 21.302 7.893 29.001 -3.993 32.484 1.383 C 34.427 4.383 33.948 7.792 33.948 11.345 C 33.948 18.821 30.053 25.845 27.323 32.914 C 25.623 37.312 23.837 41.907 21.428 46.077 C 20.761 47.23 19.871 51.559 18.792 52" fill="transparent" stroke-width="5" stroke="rgb(240, 234, 228)" stroke-linecap="round" stroke-miterlimit="10" stroke-dasharray=""></path></svg>