<svg xmlns="http://www.w3.org/2000/svg" width="28" height="75" fill="none" overflow="visible"><g><path d="M 0.757 36.054 C 1.381 36.054 2.029 36.119 2.649 36.037 C 3.785 35.886 4.501 34.295 5.353 33.522 C 7.839 31.263 8.996 28.026 10.468 24.815 C 12.442 20.512 12.613 15.862 12.613 11.044 L 12.613 5.978 C 12.613 4.599 12.108 3.349 12.108 2.022 C 12.108 1.104 11.856 -1.308 11.856 0.914 L 11.856 14.825 C 11.856 17.168 12.547 19.421 12.613 21.738 C 12.711 25.17 14.213 29.515 16.144 31.938 C 16.956 32.959 17.45 34.209 18.289 35.262 C 19.088 36.265 20.048 37.008 21.049 37.566 C 23.029 38.671 25.599 38.269 27.747 38.269" fill="transparent" stroke-width="5" stroke="rgb(240, 234, 228)" stroke-linecap="round" stroke-miterlimit="10" stroke-dasharray=""></path><path d="M 0 37.004 C 1.06 37.004 1.852 36.924 2.775 37.566 C 3.576 38.125 4.253 39.595 4.792 40.557 C 7.021 44.53 8.752 48.165 9.599 52.956 C 10.498 58.029 10.848 63.192 10.848 68.415 L 10.848 74.36 C 10.848 75.967 10.982 74.112 11.085 73.533 C 11.527 71.035 11.382 68.415 11.997 65.882 C 12.693 63.007 13.086 59.793 14.126 57.088 C 15.626 53.189 16.444 49.053 18.414 45.481 C 19.788 42.99 20.85 41.161 23.333 40.469 C 24.228 40.219 25.165 39.536 26.094 39.536 L 28 39.536" fill="transparent" stroke-width="5" stroke="rgb(240, 234, 228)" stroke-linecap="round" stroke-miterlimit="10" stroke-dasharray=""></path></g></svg>