<svg xmlns="http://www.w3.org/2000/svg" width="14" height="34" fill="none" overflow="visible"><g><path d="M 0 17.232 C 2.581 17.232 3.989 21.951 4.518 24.619 C 4.939 26.737 4.766 29 5.063 31.15 C 5.147 31.757 5.218 32.539 5.218 33.146 C 5.218 33.469 5.346 34.531 5.346 33.671 C 5.346 31.428 5.752 29.325 6.42 27.256 C 7.102 25.147 8.167 23.321 9.164 21.438 C 10.341 19.213 12.01 18.836 14 18.836" fill="transparent" stroke-width="5" stroke="rgb(240, 234, 228)" stroke-linecap="round" stroke-miterlimit="10" stroke-dasharray=""></path><path d="M 1.018 16.591 C 2.036 16.591 3.255 16.98 4.009 16.029 C 4.553 15.343 4.809 14.297 5.091 13.419 C 5.566 11.938 5.991 10.612 6.3 9.053 C 6.596 7.562 6.637 5.992 6.809 4.473 C 6.952 3.207 7.127 1.955 7.127 0.677 L 7.127 0 C 7.127 1.085 7.385 2.208 7.509 3.278 C 7.949 7.096 8.283 11.799 9.991 15.146 C 10.371 15.892 13.159 18.467 13.984 18.583" fill="transparent" stroke-width="5" stroke="rgb(240, 234, 228)" stroke-linecap="round" stroke-miterlimit="10" stroke-dasharray=""></path></g></svg>