<svg xmlns="http://www.w3.org/2000/svg" width="125" height="101" fill="none"><path d="M 15.037 89.346 L 26.55 50.5 L 113.916 50.5 L 102.402 89.346 Z M 58.95 101 L 102.425 101 C 107.261 101 111.544 97.698 112.972 92.818 L 124.486 53.972 C 126.719 46.47 121.4 38.846 113.939 38.846 L 26.573 38.846 C 21.738 38.846 17.455 42.148 16.027 47.028 L 11.053 63.708 L 11.053 15.538 C 11.053 13.402 12.711 11.654 14.737 11.654 L 46.676 11.654 C 47.482 11.654 48.242 11.921 48.887 12.431 L 57.729 19.423 C 60.907 21.948 64.799 23.308 68.783 23.308 L 95.794 23.308 C 97.82 23.308 99.478 25.056 99.478 27.192 L 110.531 27.192 C 110.531 18.622 103.922 11.654 95.794 11.654 L 68.783 11.654 C 67.194 11.654 65.628 11.12 64.361 10.1 L 55.519 3.108 C 52.963 1.093 49.877 0 46.676 0 L 14.737 0 C 6.609 0 0 6.968 0 15.538 L 0 85.462 C 0 94.032 6.609 101 14.737 101 Z" fill="rgb(120, 120, 120)"></path></svg>